# Blender 4.4.3
# www.blender.org
mtllib torus7.mtl
o Torus
v 1.250000 0.000000 0.000000
v 0.875000 0.216506 0.000000
v 0.875000 -0.216506 0.000000
v 0.779362 0.000000 -0.977289
v 0.545553 0.216506 -0.684103
v 0.545553 -0.216506 -0.684103
v -0.278151 0.000000 -1.218660
v -0.194706 0.216506 -0.853062
v -0.194706 -0.216506 -0.853062
v -1.126211 0.000000 -0.542355
v -0.788348 0.216506 -0.379648
v -0.788348 -0.216506 -0.379648
v -1.126211 0.000000 0.542354
v -0.788348 0.216506 0.379648
v -0.788348 -0.216506 0.379648
v -0.278151 0.000000 1.218660
v -0.194706 0.216506 0.853062
v -0.194706 -0.216506 0.853062
v 0.779362 0.000000 0.977290
v 0.545553 0.216506 0.684103
v 0.545553 -0.216506 0.684103
vn 0.4861 0.8420 -0.2341
vn -0.9010 -0.0000 0.4339
vn 0.4861 -0.8420 -0.2341
vn 0.1201 0.8420 -0.5260
vn -0.2225 -0.0000 0.9749
vn 0.1201 -0.8420 -0.5260
vn -0.3364 0.8420 -0.4218
vn 0.6235 -0.0000 0.7818
vn -0.3364 -0.8420 -0.4218
vn -0.5395 0.8420 -0.0000
vn 1.0000 -0.0000 -0.0000
vn -0.5395 -0.8420 -0.0000
vn -0.3364 0.8420 0.4218
vn 0.6235 -0.0000 -0.7818
vn -0.3364 -0.8420 0.4218
vn 0.1201 0.8420 0.5260
vn -0.2225 -0.0000 -0.9749
vn 0.1201 -0.8420 0.5260
vn 0.4861 0.8420 0.2341
vn -0.9010 -0.0000 -0.4339
vn 0.4861 -0.8420 0.2341
vt 0.571429 0.666667
vt 0.714286 0.666667
vt 0.714286 1.000000
vt 0.571429 1.000000
vt 0.571429 0.000000
vt 0.714286 0.000000
vt 0.714286 0.333333
vt 0.571429 0.333333
vt 0.857143 0.666667
vt 0.857143 1.000000
vt 0.857143 0.000000
vt 0.857143 0.333333
vt 1.000000 0.666667
vt 1.000000 1.000000
vt 1.000000 0.000000
vt 1.000000 0.333333
vt -0.000000 0.666667
vt 0.142857 0.666667
vt 0.142857 1.000000
vt -0.000000 1.000000
vt -0.000000 0.000000
vt 0.142857 0.000000
vt 0.142857 0.333333
vt -0.000000 0.333333
vt 0.285714 0.666667
vt 0.285714 1.000000
vt 0.285714 0.000000
vt 0.285714 0.333333
vt 0.428571 0.666667
vt 0.428571 1.000000
vt 0.428571 0.000000
vt 0.428571 0.333333
s 0
f 1/1/1 4/2/1 5/3/1 2/4/1
f 2/5/2 5/6/2 6/7/2 3/8/2
f 3/8/3 6/7/3 4/2/3 1/1/3
f 4/2/4 7/9/4 8/10/4 5/3/4
f 5/6/5 8/11/5 9/12/5 6/7/5
f 6/7/6 9/12/6 7/9/6 4/2/6
f 7/9/7 10/13/7 11/14/7 8/10/7
f 8/11/8 11/15/8 12/16/8 9/12/8
f 9/12/9 12/16/9 10/13/9 7/9/9
f 10/17/10 13/18/10 14/19/10 11/20/10
f 11/21/11 14/22/11 15/23/11 12/24/11
f 12/24/12 15/23/12 13/18/12 10/17/12
f 13/18/13 16/25/13 17/26/13 14/19/13
f 14/22/14 17/27/14 18/28/14 15/23/14
f 15/23/15 18/28/15 16/25/15 13/18/15
f 16/25/16 19/29/16 20/30/16 17/26/16
f 17/27/17 20/31/17 21/32/17 18/28/17
f 18/28/18 21/32/18 19/29/18 16/25/18
f 19/29/19 1/1/19 2/4/19 20/30/19
f 20/31/20 2/5/20 3/8/20 21/32/20
f 21/32/21 3/8/21 1/1/21 19/29/21
