# Blender 4.4.3
# www.blender.org
mtllib torus5.mtl
o Torus
v 1.250000 0.000000 0.000000
v 0.875000 0.216506 0.000000
v 0.875000 -0.216506 0.000000
v 0.386271 0.000000 -1.188821
v 0.270390 0.216506 -0.832174
v 0.270390 -0.216506 -0.832174
v -1.011271 0.000000 -0.734731
v -0.707890 0.216506 -0.514312
v -0.707890 -0.216506 -0.514312
v -1.011271 0.000000 0.734731
v -0.707890 0.216506 0.514312
v -0.707890 -0.216506 0.514312
v 0.386271 0.000000 1.188821
v 0.270390 0.216506 0.832174
v 0.270390 -0.216506 0.832174
vn 0.4700 0.8140 -0.3414
vn -0.8090 -0.0000 0.5878
vn 0.4700 -0.8140 -0.3414
vn -0.1795 0.8140 -0.5525
vn 0.3090 -0.0000 0.9511
vn -0.1795 -0.8140 -0.5525
vn -0.5809 0.8140 -0.0000
vn 1.0000 -0.0000 -0.0000
vn -0.5809 -0.8140 -0.0000
vn -0.1795 0.8140 0.5525
vn 0.3090 -0.0000 -0.9511
vn -0.1795 -0.8140 0.5525
vn 0.4700 0.8140 0.3414
vn -0.8090 -0.0000 -0.5878
vn 0.4700 -0.8140 0.3414
vt 0.600000 0.666667
vt 0.800000 0.666667
vt 0.800000 1.000000
vt 0.600000 1.000000
vt 0.600000 0.000000
vt 0.800000 0.000000
vt 0.800000 0.333333
vt 0.600000 0.333333
vt 1.000000 0.666667
vt 1.000000 1.000000
vt 1.000000 0.000000
vt 1.000000 0.333333
vt 0.000000 0.666667
vt 0.200000 0.666667
vt 0.200000 1.000000
vt 0.000000 1.000000
vt 0.000000 0.000000
vt 0.200000 0.000000
vt 0.200000 0.333333
vt 0.000000 0.333333
vt 0.400000 0.666667
vt 0.400000 1.000000
vt 0.400000 0.000000
vt 0.400000 0.333333
s 0
f 1/1/1 4/2/1 5/3/1 2/4/1
f 2/5/2 5/6/2 6/7/2 3/8/2
f 3/8/3 6/7/3 4/2/3 1/1/3
f 4/2/4 7/9/4 8/10/4 5/3/4
f 5/6/5 8/11/5 9/12/5 6/7/5
f 6/7/6 9/12/6 7/9/6 4/2/6
f 7/13/7 10/14/7 11/15/7 8/16/7
f 8/17/8 11/18/8 12/19/8 9/20/8
f 9/20/9 12/19/9 10/14/9 7/13/9
f 10/14/10 13/21/10 14/22/10 11/15/10
f 11/18/11 14/23/11 15/24/11 12/19/11
f 12/19/12 15/24/12 13/21/12 10/14/12
f 13/21/13 1/1/13 2/4/13 14/22/13
f 14/23/14 2/5/14 3/8/14 15/24/14
f 15/24/15 3/8/15 1/1/15 13/21/15
